<svg width="11" height="16" viewBox="0 0 11 16" fill="none" xmlns="http://www.w3.org/2000/svg">
<path opacity="0.4" d="M8.87492 8.41671C8.87492 9.21671 9.53325 9.87504 10.3333 9.87504C10.6749 9.87504 10.9583 10.1584 10.9583 10.5C10.9583 14.175 9.84159 15.2917 6.16658 15.2917H0.958252V13.4167C0.958252 13.075 0.674919 12.7917 0.333252 12.7917V10.4334C0.674919 10.4334 0.958252 10.15 0.958252 9.80837V6.19171C0.958252 5.85004 0.674919 5.56671 0.333252 5.56671V3.20837C0.674919 3.20837 0.958252 2.92504 0.958252 2.58337V0.708374H6.16658C9.84159 0.708374 10.9583 1.82504 10.9583 5.50004V6.33337C10.9583 6.67504 10.6749 6.95837 10.3333 6.95837C9.53325 6.95837 8.87492 7.61671 8.87492 8.41671Z" fill="#148EFF"/>
</svg>
